<mxfile host="app.diagrams.net" modified="2022-02-21T09:11:55.221Z" agent="5.0 (Macintosh; Intel Mac OS X 10_15_7) AppleWebKit/537.36 (KHTML, like Gecko) Chrome/97.0.4692.71 Safari/537.36" etag="CiHSlxh5j7rmnwLOspNC" version="16.0.3" type="github">
  <diagram id="_qMk1PFGul8xdEtNDIoM" name="第 1 页">
    <mxGraphModel dx="946" dy="511" grid="1" gridSize="10" guides="1" tooltips="1" connect="1" arrows="1" fold="1" page="1" pageScale="1" pageWidth="827" pageHeight="1169" math="0" shadow="0">
      <root>
        <mxCell id="0" />
        <mxCell id="1" parent="0" />
        <mxCell id="9hscWAj8tTcfIYD4YJay-3" value="" style="rounded=0;whiteSpace=wrap;html=1;" vertex="1" parent="1">
          <mxGeometry x="110" y="35" width="620" height="55" as="geometry" />
        </mxCell>
        <mxCell id="9hscWAj8tTcfIYD4YJay-1" value="init" style="rounded=1;whiteSpace=wrap;html=1;fillColor=#dae8fc;strokeColor=#6c8ebf;" vertex="1" parent="1">
          <mxGeometry x="140" y="50" width="80" height="30" as="geometry" />
        </mxCell>
        <mxCell id="9hscWAj8tTcfIYD4YJay-2" value="dev" style="rounded=1;whiteSpace=wrap;html=1;fillColor=#dae8fc;strokeColor=#6c8ebf;" vertex="1" parent="1">
          <mxGeometry x="240" y="50" width="80" height="30" as="geometry" />
        </mxCell>
        <mxCell id="9hscWAj8tTcfIYD4YJay-4" value="test" style="rounded=1;whiteSpace=wrap;html=1;fillColor=#dae8fc;strokeColor=#6c8ebf;" vertex="1" parent="1">
          <mxGeometry x="430" y="50" width="80" height="30" as="geometry" />
        </mxCell>
        <mxCell id="9hscWAj8tTcfIYD4YJay-5" value="deploy" style="rounded=1;whiteSpace=wrap;html=1;fillColor=#dae8fc;strokeColor=#6c8ebf;" vertex="1" parent="1">
          <mxGeometry x="530" y="50" width="80" height="30" as="geometry" />
        </mxCell>
        <mxCell id="9hscWAj8tTcfIYD4YJay-6" value="monitor" style="rounded=1;whiteSpace=wrap;html=1;fillColor=#dae8fc;strokeColor=#6c8ebf;" vertex="1" parent="1">
          <mxGeometry x="630" y="50" width="80" height="30" as="geometry" />
        </mxCell>
        <mxCell id="9hscWAj8tTcfIYD4YJay-9" value="lint" style="rounded=1;whiteSpace=wrap;html=1;fillColor=#dae8fc;strokeColor=#6c8ebf;" vertex="1" parent="1">
          <mxGeometry x="334" y="50" width="80" height="30" as="geometry" />
        </mxCell>
        <mxCell id="9hscWAj8tTcfIYD4YJay-10" value="RD Pipline" style="text;html=1;resizable=0;autosize=1;align=center;verticalAlign=middle;points=[];fillColor=none;strokeColor=none;rounded=0;" vertex="1" parent="1">
          <mxGeometry x="35" y="52.5" width="70" height="20" as="geometry" />
        </mxCell>
        <mxCell id="9hscWAj8tTcfIYD4YJay-11" value="" style="rounded=0;whiteSpace=wrap;html=1;" vertex="1" parent="1">
          <mxGeometry x="110" y="110" width="620" height="100" as="geometry" />
        </mxCell>
        <mxCell id="9hscWAj8tTcfIYD4YJay-18" value="feflow" style="text;html=1;resizable=0;autosize=1;align=center;verticalAlign=middle;points=[];fillColor=none;strokeColor=none;rounded=0;" vertex="1" parent="1">
          <mxGeometry x="35" y="150" width="50" height="20" as="geometry" />
        </mxCell>
        <mxCell id="9hscWAj8tTcfIYD4YJay-25" value="" style="group" vertex="1" connectable="0" parent="1">
          <mxGeometry x="130" y="125" width="190" height="65" as="geometry" />
        </mxCell>
        <mxCell id="9hscWAj8tTcfIYD4YJay-12" value="" style="rounded=1;whiteSpace=wrap;html=1;container=0;" vertex="1" parent="9hscWAj8tTcfIYD4YJay-25">
          <mxGeometry width="190" height="65" as="geometry" />
        </mxCell>
        <mxCell id="9hscWAj8tTcfIYD4YJay-19" value="cli" style="text;html=1;resizable=0;autosize=1;align=center;verticalAlign=middle;points=[];fillColor=none;strokeColor=none;rounded=0;container=0;" vertex="1" parent="9hscWAj8tTcfIYD4YJay-25">
          <mxGeometry x="10" y="5" width="30" height="20" as="geometry" />
        </mxCell>
        <mxCell id="9hscWAj8tTcfIYD4YJay-22" value="cli A" style="rounded=1;whiteSpace=wrap;html=1;fillColor=#dae8fc;strokeColor=#6c8ebf;container=0;" vertex="1" parent="9hscWAj8tTcfIYD4YJay-25">
          <mxGeometry x="5.2777777777777715" y="30" width="84.44444444444444" height="30" as="geometry" />
        </mxCell>
        <mxCell id="9hscWAj8tTcfIYD4YJay-23" value="cli B" style="rounded=1;whiteSpace=wrap;html=1;fillColor=#dae8fc;strokeColor=#6c8ebf;container=0;" vertex="1" parent="9hscWAj8tTcfIYD4YJay-25">
          <mxGeometry x="100" y="30" width="84.44444444444444" height="30" as="geometry" />
        </mxCell>
        <mxCell id="9hscWAj8tTcfIYD4YJay-26" value="" style="group" vertex="1" connectable="0" parent="1">
          <mxGeometry x="334" y="125" width="190" height="65" as="geometry" />
        </mxCell>
        <mxCell id="9hscWAj8tTcfIYD4YJay-27" value="" style="rounded=1;whiteSpace=wrap;html=1;container=0;" vertex="1" parent="9hscWAj8tTcfIYD4YJay-26">
          <mxGeometry width="190" height="65" as="geometry" />
        </mxCell>
        <mxCell id="9hscWAj8tTcfIYD4YJay-28" value="plugin" style="text;html=1;resizable=0;autosize=1;align=center;verticalAlign=middle;points=[];fillColor=none;strokeColor=none;rounded=0;container=0;" vertex="1" parent="9hscWAj8tTcfIYD4YJay-26">
          <mxGeometry y="5" width="50" height="20" as="geometry" />
        </mxCell>
        <mxCell id="9hscWAj8tTcfIYD4YJay-29" value="plugin A" style="rounded=1;whiteSpace=wrap;html=1;fillColor=#dae8fc;strokeColor=#6c8ebf;container=0;" vertex="1" parent="9hscWAj8tTcfIYD4YJay-26">
          <mxGeometry x="5.2777777777777715" y="30" width="84.44444444444444" height="30" as="geometry" />
        </mxCell>
        <mxCell id="9hscWAj8tTcfIYD4YJay-30" value="plugin B" style="rounded=1;whiteSpace=wrap;html=1;fillColor=#dae8fc;strokeColor=#6c8ebf;container=0;" vertex="1" parent="9hscWAj8tTcfIYD4YJay-26">
          <mxGeometry x="100" y="30" width="84.44444444444444" height="30" as="geometry" />
        </mxCell>
        <mxCell id="9hscWAj8tTcfIYD4YJay-31" value="initialize" style="rounded=1;whiteSpace=wrap;html=1;fillColor=#dae8fc;strokeColor=#6c8ebf;" vertex="1" parent="1">
          <mxGeometry x="540" y="125" width="80" height="30" as="geometry" />
        </mxCell>
        <mxCell id="9hscWAj8tTcfIYD4YJay-32" value="install" style="rounded=1;whiteSpace=wrap;html=1;fillColor=#dae8fc;strokeColor=#6c8ebf;" vertex="1" parent="1">
          <mxGeometry x="630" y="125" width="80" height="30" as="geometry" />
        </mxCell>
        <mxCell id="9hscWAj8tTcfIYD4YJay-33" value="register" style="rounded=1;whiteSpace=wrap;html=1;fillColor=#dae8fc;strokeColor=#6c8ebf;" vertex="1" parent="1">
          <mxGeometry x="540" y="160" width="80" height="30" as="geometry" />
        </mxCell>
        <mxCell id="9hscWAj8tTcfIYD4YJay-34" value="deploy" style="rounded=1;whiteSpace=wrap;html=1;fillColor=#dae8fc;strokeColor=#6c8ebf;" vertex="1" parent="1">
          <mxGeometry x="630" y="160" width="80" height="30" as="geometry" />
        </mxCell>
        <mxCell id="9hscWAj8tTcfIYD4YJay-35" value="" style="rounded=0;whiteSpace=wrap;html=1;" vertex="1" parent="1">
          <mxGeometry x="110" y="230" width="620" height="70" as="geometry" />
        </mxCell>
        <mxCell id="9hscWAj8tTcfIYD4YJay-36" value="git" style="rounded=1;whiteSpace=wrap;html=1;fillColor=#dae8fc;strokeColor=#6c8ebf;" vertex="1" parent="1">
          <mxGeometry x="140" y="250" width="80" height="30" as="geometry" />
        </mxCell>
        <mxCell id="9hscWAj8tTcfIYD4YJay-37" value="jenkins" style="rounded=1;whiteSpace=wrap;html=1;fillColor=#eeeeee;strokeColor=#36393d;dashed=1;" vertex="1" parent="1">
          <mxGeometry x="500" y="250" width="80" height="30" as="geometry" />
        </mxCell>
        <mxCell id="9hscWAj8tTcfIYD4YJay-38" value="pnpm" style="rounded=1;whiteSpace=wrap;html=1;fillColor=#dae8fc;strokeColor=#6c8ebf;" vertex="1" parent="1">
          <mxGeometry x="380" y="250" width="80" height="30" as="geometry" />
        </mxCell>
        <mxCell id="9hscWAj8tTcfIYD4YJay-42" value="platform" style="text;html=1;resizable=0;autosize=1;align=center;verticalAlign=middle;points=[];fillColor=none;strokeColor=none;rounded=0;" vertex="1" parent="1">
          <mxGeometry x="35" y="255" width="60" height="20" as="geometry" />
        </mxCell>
        <mxCell id="9hscWAj8tTcfIYD4YJay-43" value="sentry" style="rounded=1;whiteSpace=wrap;html=1;fillColor=#eeeeee;strokeColor=#36393d;dashed=1;" vertex="1" parent="1">
          <mxGeometry x="620" y="250" width="80" height="30" as="geometry" />
        </mxCell>
        <mxCell id="9hscWAj8tTcfIYD4YJay-44" value="node" style="rounded=1;whiteSpace=wrap;html=1;fillColor=#dae8fc;strokeColor=#6c8ebf;" vertex="1" parent="1">
          <mxGeometry x="260" y="250" width="80" height="30" as="geometry" />
        </mxCell>
      </root>
    </mxGraphModel>
  </diagram>
</mxfile>
